<svg width="256" height="256" viewBox="0 0 256 256" fill="none" xmlns="http://www.w3.org/2000/svg">
<g clip-path="url(#clip0_2002_3)">
<rect width="256" height="256" rx="12" fill="#080808"/>
<path d="M72.3182 209H69.8182V211.5H72.3182V209ZM72.3182 194.682L70.2412 193.29L69.8182 193.922V194.682H72.3182ZM160.136 63.5909L162.213 64.9823L164.82 61.0909H160.136V63.5909ZM71.3636 63.5909H68.8636V66.0909H71.3636V63.5909ZM71.3636 46.0909V43.5909H68.8636V46.0909H71.3636ZM183.682 46.0909H186.182V43.5909H183.682V46.0909ZM183.682 60.4091L185.759 61.8005L186.182 61.1691V60.4091H183.682ZM95.8636 191.5L93.7866 190.109L91.1798 194H95.8636V191.5ZM184.636 191.5H187.136V189H184.636V191.5ZM184.636 209V211.5H187.136V209H184.636ZM72.3182 209H74.8182V194.682H72.3182H69.8182V209H72.3182ZM72.3182 194.682L74.3952 196.073L162.213 64.9823L160.136 63.5909L158.059 62.1995L70.2412 193.29L72.3182 194.682ZM160.136 63.5909V61.0909H71.3636V63.5909V66.0909H160.136V63.5909ZM71.3636 63.5909H73.8636V46.0909H71.3636H68.8636V63.5909H71.3636ZM71.3636 46.0909V48.5909H183.682V46.0909V43.5909H71.3636V46.0909ZM183.682 46.0909H181.182V60.4091H183.682H186.182V46.0909H183.682ZM183.682 60.4091L181.605 59.0177L93.7866 190.109L95.8636 191.5L97.9407 192.891L185.759 61.8005L183.682 60.4091ZM95.8636 191.5V194H184.636V191.5V189H95.8636V191.5ZM184.636 191.5H182.136V209H184.636H187.136V191.5H184.636ZM184.636 209V206.5H72.3182V209V211.5H184.636V209Z" fill="#525252"/>
<rect x="70" y="45" width="113" height="21" rx="1" fill="#525252"/>
<rect x="73" y="189" width="113" height="22" rx="1" fill="#525252"/>
</g>
<defs>
<clipPath id="clip0_2002_3">
<rect width="256" height="256" fill="white"/>
</clipPath>
</defs>
</svg>
