<svg width="256" height="256" viewBox="0 0 256 256" fill="none" xmlns="http://www.w3.org/2000/svg">
<path d="M21.8573 155H20.8573V156H21.8573V155ZM21.8573 150.27L21.0265 149.713L20.8573 149.966V150.27H21.8573ZM50.8687 106.963L51.6995 107.52L52.7422 105.963H50.8687V106.963ZM21.542 106.963H20.542V107.963H21.542V106.963ZM21.542 101.182V100.182H20.542V101.182H21.542ZM58.6471 101.182H59.6471V100.182H58.6471V101.182ZM58.6471 105.912L59.4779 106.468L59.6471 106.216V105.912H58.6471ZM29.6357 149.219L28.8049 148.662L27.7622 150.219H29.6357V149.219ZM58.9624 149.219H59.9624V148.219H58.9624V149.219ZM58.9624 155V156H59.9624V155H58.9624ZM21.8573 155H22.8573V150.27H21.8573H20.8573V155H21.8573ZM21.8573 150.27L22.6881 150.826L51.6995 107.52L50.8687 106.963L50.0379 106.407L21.0265 149.713L21.8573 150.27ZM50.8687 106.963V105.963H21.542V106.963V107.963H50.8687V106.963ZM21.542 106.963H22.542V101.182H21.542H20.542V106.963H21.542ZM21.542 101.182V102.182H58.6471V101.182V100.182H21.542V101.182ZM58.6471 101.182H57.6471V105.912H58.6471H59.6471V101.182H58.6471ZM58.6471 105.912L57.8163 105.355L28.8049 148.662L29.6357 149.219L30.4665 149.775L59.4779 106.468L58.6471 105.912ZM29.6357 149.219V150.219H58.9624V149.219V148.219H29.6357V149.219ZM58.9624 149.219H57.9624V155H58.9624H59.9624V149.219H58.9624ZM58.9624 155V154H21.8573V155V156H58.9624V155ZM114.264 101.182V100.182H113.264V101.182H114.264ZM117.549 101.182H118.549V100.182H117.549V101.182ZM115 146.617L115.859 147.129L115.86 147.126L115 146.617ZM107.957 153.397L108.441 154.272L108.443 154.271L107.957 153.397ZM87.4072 153.397L86.9216 154.271L86.9255 154.273L87.4072 153.397ZM80.3383 146.591L79.4776 147.1L79.4799 147.104L80.3383 146.591ZM77.8156 136.815L78.8156 136.82V136.815H77.8156ZM77.8156 101.182V100.182H76.8156V101.182H77.8156ZM81.1004 101.182H82.1004V100.182H81.1004V101.182ZM83.2027 144.909L82.3375 145.411L82.3403 145.415L83.2027 144.909ZM89.0628 150.638L88.5719 151.509L88.5766 151.512L89.0628 150.638ZM106.301 150.638L106.788 151.512L106.792 151.509L106.301 150.638ZM112.135 144.909L111.273 144.403L111.27 144.408L112.135 144.909ZM114.264 101.182V102.182H117.549V101.182V100.182H114.264V101.182ZM117.549 101.182H116.549V136.815H117.549H118.549V101.182H117.549ZM117.549 136.815H116.549C116.549 140.316 115.738 143.404 114.139 146.108L115 146.617L115.86 147.126C117.659 144.084 118.549 140.638 118.549 136.815H117.549ZM115 146.617L114.14 146.106C112.534 148.805 110.318 150.942 107.471 152.523L107.957 153.397L108.443 154.271C111.588 152.524 114.066 150.141 115.859 147.129L115 146.617ZM107.957 153.397L107.473 152.522C104.662 154.076 101.408 154.867 97.6821 154.867V155.867V156.867C101.699 156.867 105.295 156.012 108.441 154.272L107.957 153.397ZM97.6821 155.867V154.867C93.9745 154.867 90.7191 154.076 87.8889 152.521L87.4072 153.397L86.9255 154.273C90.0868 156.011 93.6813 156.867 97.6821 156.867V155.867ZM87.4072 153.397L87.8929 152.523C85.0471 150.942 82.8211 148.796 81.1967 146.078L80.3383 146.591L79.4799 147.104C81.2893 150.132 83.7758 152.524 86.9216 154.271L87.4072 153.397ZM80.3383 146.591L81.199 146.082C79.6 143.378 78.7989 140.3 78.8156 136.82L77.8156 136.815L76.8156 136.811C76.7973 140.618 77.6779 144.057 79.4776 147.1L80.3383 146.591ZM77.8156 136.815H78.8156V101.182H77.8156H76.8156V136.815H77.8156ZM77.8156 101.182V102.182H81.1004V101.182V100.182H77.8156V101.182ZM81.1004 101.182H80.1004V136.631H81.1004H82.1004V101.182H81.1004ZM81.1004 136.631H80.1004C80.1004 139.889 80.8383 142.824 82.3375 145.411L83.2027 144.909L84.0678 144.408C82.7641 142.159 82.1004 139.576 82.1004 136.631H81.1004ZM83.2027 144.909L82.3403 145.415C83.8504 147.988 85.9333 150.022 88.5719 151.509L89.0628 150.638L89.5536 149.767C87.2168 148.45 85.393 146.665 84.0651 144.403L83.2027 144.909ZM89.0628 150.638L88.5766 151.512C91.2333 152.99 94.2783 153.714 97.6821 153.714V152.714V151.714C94.5688 151.714 91.8676 151.054 89.5489 149.764L89.0628 150.638ZM97.6821 152.714V153.714C101.086 153.714 104.131 152.99 106.788 151.512L106.301 150.638L105.815 149.764C103.497 151.054 100.795 151.714 97.6821 151.714V152.714ZM106.301 150.638L106.792 151.509C109.432 150.022 111.507 147.986 113 145.411L112.135 144.909L111.27 144.408C109.96 146.667 108.146 148.451 105.811 149.767L106.301 150.638ZM112.135 144.909L112.998 145.415C114.516 142.828 115.264 139.891 115.264 136.631H114.264H113.264C113.264 139.574 112.592 142.155 111.273 144.403L112.135 144.909ZM114.264 136.631H115.264V101.182H114.264H113.264V136.631H114.264ZM180.885 101.182H181.885V100.182H180.885V101.182ZM180.885 155V156H181.885V155H180.885ZM177.679 155L176.866 155.583L177.165 156H177.679V155ZM143.359 107.147L144.172 106.564L143.872 106.147H143.359V107.147ZM143.044 107.147V106.147H142.044V107.147H143.044ZM143.044 155V156H144.044V155H143.044ZM139.759 155H138.759V156H139.759V155ZM139.759 101.182V100.182H138.759V101.182H139.759ZM142.991 101.182L143.804 100.599L143.505 100.182H142.991V101.182ZM177.311 149.087L176.498 149.67L176.797 150.087H177.311V149.087ZM177.626 149.087V150.087H178.626V149.087H177.626ZM177.626 101.182V100.182H176.626V101.182H177.626ZM180.885 101.182H179.885V155H180.885H181.885V101.182H180.885ZM180.885 155V154H177.679V155V156H180.885V155ZM177.679 155L178.491 154.417L144.172 106.564L143.359 107.147L142.546 107.73L176.866 155.583L177.679 155ZM143.359 107.147V106.147H143.044V107.147V108.147H143.359V107.147ZM143.044 107.147H142.044V155H143.044H144.044V107.147H143.044ZM143.044 155V154H139.759V155V156H143.044V155ZM139.759 155H140.759V101.182H139.759H138.759V155H139.759ZM139.759 101.182V102.182H142.991V101.182V100.182H139.759V101.182ZM142.991 101.182L142.178 101.764L176.498 149.67L177.311 149.087L178.124 148.505L143.804 100.599L142.991 101.182ZM177.311 149.087V150.087H177.626V149.087V148.087H177.311V149.087ZM177.626 149.087H178.626V101.182H177.626H176.626V149.087H177.626ZM177.626 101.182V102.182H180.885V101.182V100.182H177.626V101.182ZM203.075 155H202.075V156H203.075V155ZM203.075 101.182V100.182H202.075V101.182H203.075ZM233.032 101.182H234.032V100.182H233.032V101.182ZM233.032 104.23V105.23H234.032V104.23H233.032ZM206.36 104.23V103.23H205.36V104.23H206.36ZM206.36 126.54H205.36V127.54H206.36V126.54ZM231.429 126.54H232.429V125.54H231.429V126.54ZM231.429 129.589V130.589H232.429V129.589H231.429ZM206.36 129.589V128.589H205.36V129.589H206.36ZM206.36 151.952H205.36V152.952H206.36V151.952ZM233.663 151.952H234.663V150.952H233.663V151.952ZM233.663 155V156H234.663V155H233.663ZM203.075 155H204.075V101.182H203.075H202.075V155H203.075ZM203.075 101.182V102.182H233.032V101.182V100.182H203.075V101.182ZM233.032 101.182H232.032V104.23H233.032H234.032V101.182H233.032ZM233.032 104.23V103.23H206.36V104.23V105.23H233.032V104.23ZM206.36 104.23H205.36V126.54H206.36H207.36V104.23H206.36ZM206.36 126.54V127.54H231.429V126.54V125.54H206.36V126.54ZM231.429 126.54H230.429V129.589H231.429H232.429V126.54H231.429ZM231.429 129.589V128.589H206.36V129.589V130.589H231.429V129.589ZM206.36 129.589H205.36V151.952H206.36H207.36V129.589H206.36ZM206.36 151.952V152.952H233.663V151.952V150.952H206.36V151.952ZM233.663 151.952H232.663V155H233.663H234.663V151.952H233.663ZM233.663 155V154H203.075V155V156H233.663V155Z" fill="url(#paint0_linear_2002_15)"/>
<path d="M21.8573 155V150.27L50.8687 106.963H21.542V101.182H58.6471V105.912L29.6357 149.219H58.9624V155H21.8573ZM114.264 101.182H117.549V136.815C117.549 140.477 116.699 143.744 115 146.617C113.3 149.473 110.953 151.733 107.957 153.397C104.979 155.044 101.554 155.867 97.6821 155.867C93.8279 155.867 90.403 155.044 87.4072 153.397C84.4115 151.733 82.0552 149.464 80.3383 146.591C78.639 143.718 77.7981 140.459 77.8156 136.815V101.182H81.1004V136.631C81.1004 139.732 81.8012 142.491 83.2027 144.909C84.6217 147.327 86.5751 149.236 89.0628 150.638C91.5504 152.022 94.4235 152.714 97.6821 152.714C100.941 152.714 103.814 152.022 106.301 150.638C108.789 149.236 110.734 147.327 112.135 144.909C113.554 142.491 114.264 139.732 114.264 136.631V101.182ZM180.885 101.182V155H177.679L143.359 107.147H143.044V155H139.759V101.182H142.991L177.311 149.087H177.626V101.182H180.885ZM203.075 155V101.182H233.032V104.23H206.36V126.54H231.429V129.589H206.36V151.952H233.663V155H203.075Z" fill="url(#paint1_linear_2002_15)"/>
<rect x="21" y="100.97" width="37" height="7" rx="1" fill="#343434"/>
<rect x="22" y="148.25" width="37" height="7" rx="1" fill="#343434"/>
<defs>
<linearGradient id="paint0_linear_2002_15" x1="0" y1="128" x2="256" y2="128" gradientUnits="userSpaceOnUse">
<stop stop-color="#343434"/>
<stop offset="0.254908" stop-color="#343434"/>
<stop offset="0.28" stop-color="white" stop-opacity="0"/>
<stop offset="1" stop-color="white" stop-opacity="0"/>
</linearGradient>
<linearGradient id="paint1_linear_2002_15" x1="0" y1="128" x2="256" y2="128" gradientUnits="userSpaceOnUse">
<stop stop-color="white" stop-opacity="0"/>
<stop offset="0.264423" stop-color="white" stop-opacity="0"/>
<stop offset="0.264523"/>
<stop offset="1"/>
</linearGradient>
</defs>
</svg>
